<?xml version="1.0" encoding="iso-8859-1"?>
<!-- Generator: Adobe Illustrator 19.0.0, SVG Export Plug-In . SVG Version: 6.00 Build 0)  -->
<svg version="1.1" id="Layer_1" xmlns="http://www.w3.org/2000/svg" xmlns:xlink="http://www.w3.org/1999/xlink" x="0px" y="0px"
	 viewBox="0 0 247.871 247.871" style="enable-background:new 0 0 247.871 247.871;" xml:space="preserve">
<g>
	<g>
		<path d="M213.978,10.322H33.888C15.203,10.322,0,25.525,0,44.207v124.494c0,18.685,15.203,33.888,33.888,33.888h47.327v20.101
			h-27.88v14.859h141.2V222.69h-27.88v-20.101h47.323c18.69,0,33.893-15.203,33.893-33.888V44.207
			C247.868,25.525,232.668,10.322,213.978,10.322z M151.797,220.211h-55.72v-17.335h55.72V220.211z M233.007,168.699h-0.002v-0.001
			c0.005,10.49-8.531,19.029-19.029,19.029H33.888c-10.493,0-19.029-8.536-19.029-19.029V158.29h218.148V168.699z M233.01,143.431
			L233.01,143.431H14.859V44.207c0-10.493,8.534-19.027,19.027-19.027h180.09c10.495,0,19.034,8.534,19.034,19.027V143.431z"/>
	</g>
</g>
<g>
</g>
<g>
</g>
<g>
</g>
<g>
</g>
<g>
</g>
<g>
</g>
<g>
</g>
<g>
</g>
<g>
</g>
<g>
</g>
<g>
</g>
<g>
</g>
<g>
</g>
<g>
</g>
<g>
</g>
</svg>
